<svg width="28" height="25" viewBox="0 0 28 25" fill="none" xmlns="http://www.w3.org/2000/svg">
<path fill-rule="evenodd" clip-rule="evenodd" d="M20.0756 0C24.3449 0 27.5641 3.48333 27.5641 8.10256V16.9077C27.5641 19.2718 26.7282 21.4077 25.209 22.9231C23.8462 24.2808 22.0782 25 20.0962 25H7.4641C5.4859 25 3.71923 24.2821 2.35513 22.9231C0.835897 21.4077 0 19.2718 0 16.9077V8.10256C0 3.48333 3.21923 0 7.48846 0H20.0756ZM20.0756 1.92308H7.48846C4.2641 1.92308 1.92308 4.5218 1.92308 8.10256V16.9077C1.92308 18.7577 2.55897 20.4103 3.71282 21.5603C4.70769 22.5538 6.00641 23.0769 7.46795 23.0769H20.0756C20.0782 23.0744 20.0885 23.0769 20.0962 23.0769C21.559 23.0769 22.8564 22.5538 23.8513 21.5603C25.0064 20.4103 25.641 18.7577 25.641 16.9077V8.10256C25.641 4.5218 23.3 1.92308 20.0756 1.92308ZM22.0962 7.85744C22.4308 8.26897 22.3679 8.8741 21.9564 9.21L16.259 13.8408C15.5385 14.4126 14.6769 14.6985 13.8167 14.6985C12.959 14.6985 12.1038 14.4151 11.3885 13.8485L5.63846 9.21256C5.22436 8.87923 5.16026 8.27282 5.49231 7.86C5.82692 7.44846 6.43205 7.38308 6.84487 7.71513L12.5897 12.3459C13.3115 12.9177 14.3282 12.9177 15.0551 12.3408L20.7423 7.71769C21.1551 7.38051 21.7603 7.44462 22.0962 7.85744Z" fill="#383838"/>
</svg>
